<svg xmlns="http://www.w3.org/2000/svg" width="256" height="256"><path fill-opacity=".016" d="M0 128.004v128.004l128.25-.254 128.25-.254.254-127.75L257.008 0H0v128.004m.485.496c0 70.4.119 99.053.265 63.672.146-35.38.146-92.98 0-128C.604 29.153.485 58.1.485 128.5" fill="#1976D2" fill-rule="evenodd"/><path fill-opacity=".091" d="M101.57 33.122c-5.12 1.201-20.581 8.544-28.059 13.328-7.855 5.025-16.437 13.336-23.664 22.92-14.175 18.796-18.451 34.042-17.606 62.773.39 13.263.905 17.681 2.721 23.357 7.268 22.712 24.764 43.724 47.255 56.75 4.51 2.612 8.557 4.75 8.992 4.75 2.029 0 .28-1.99-5.459-6.21-12.117-8.909-23.583-22.554-30.496-36.29-6.828-13.568-10.984-33.022-9.695-45.381 2.933-28.125 19.918-53.52 52.162-77.988C110.751 41.243 115 37.012 115 33.923c0-1.642-.695-1.908-4.75-1.823-2.612.056-6.519.516-8.68 1.022m40.43.26c0 .209 3.512 4.271 7.804 9.025 12.575 13.928 17.907 24.261 20.657 40.029 2.924 16.767 1.232 32.996-5.114 49.06-4.104 10.388-7.064 15.97-20.136 37.974-11.162 18.788-15.255 27.905-15.936 35.494-.514 5.718 1.101 14.036 2.724 14.036.507 0 3.501-3.488 6.653-7.75 3.151-4.262 12.891-14.725 21.642-23.25 17.241-16.794 22.743-23.649 28.163-35.089 5.937-12.53 7.75-21.321 7.819-37.911.071-16.972-1.544-25.82-6.69-36.656-7.081-14.91-19.304-29.331-32.389-38.212-7.626-5.176-15.197-8.539-15.197-6.75m-24.072 5.76c-1.163 2.279-11.191 13.411-22.297 24.75-26.091 26.641-32.427 36.164-36.317 54.589-2.022 9.576-2.002 32.815.037 42.328 4.596 21.449 24.414 46.426 44.907 56.597 5.092 2.527 9.828 4.594 10.525 4.594.698 0-1.781-2.625-5.507-5.832-15.427-13.279-23.479-29.038-26.303-51.48-2.935-23.313 3.697-43.925 25.314-78.678 10.188-16.38 12.948-21.924 15.166-30.47 2.612-10.064 1.639-20.54-1.908-20.54-.827 0-2.455 1.864-3.617 4.142M162 37.737c0 .458 1.342 1.624 2.982 2.593 4.763 2.814 19.878 17.582 25.25 24.67 6.397 8.442 13.241 22.43 15.901 32.5 2.94 11.131 2.916 28.815-.053 40-6.097 22.964-19.252 40.585-46.58 62.394-14.108 11.259-20.5 17.557-20.5 20.198 0 2.611 2.819 2.475 13.638-.659 19.625-5.686 27.933-10.767 43.716-26.733 20.667-20.907 27.644-39.744 26.343-71.123-.628-15.146-2.289-23.363-6.713-33.214-5.347-11.906-18.314-28.199-29.566-37.149C180.219 46.283 162 36.228 162 37.737M129.317 66.75c.303.963 1.3 3.775 2.215 6.25 1.204 3.253 1.544 6.578 1.229 12-.517 8.881-1.701 11.45-17.761 38.5-20.868 35.149-24.212 44.868-20.887 60.701 2.589 12.331 10.862 25.246 20.357 31.778 4.399 3.027 12.302 6.582 13.024 5.86.227-.226-.747-2.753-2.164-5.616-2.124-4.292-2.569-6.586-2.541-13.093.046-10.562 2.06-15.252 16.369-38.13 19.646-31.41 20.685-33.801 21.557-49.599.971-17.609-3.13-28.133-15.14-38.845C138.147 69.93 131.393 65 129.744 65c-.538 0-.73.787-.427 1.75" fill="#1976D2" fill-rule="evenodd"/><path fill-opacity=".342" d="M103.5 33.144c-5.832 1.126-22.997 9.088-30.898 14.332-6.865 4.557-18.457 16.114-24.186 24.113-5.687 7.939-10.847 18.937-13.564 28.911-1.854 6.806-2.19 10.761-2.253 26.5-.065 16.142.201 19.456 2.092 26 2.984 10.329 7.57 20.212 12.724 27.423 5.408 7.567 20.123 21.834 28.087 27.23 6.942 4.705 14.483 8.695 15.158 8.02.256-.256-2.936-3.026-7.094-6.156-13.327-10.03-23.771-23.539-30.862-39.922-18.298-42.269-3.154-82.396 44.809-118.728 10.654-8.071 17.853-15.256 17.22-17.186-.503-1.534-4.964-1.747-11.233-.537m39.505.593c.003.419 3.349 4.504 7.436 9.076 8.795 9.839 12.666 15.644 16.154 24.228C170.193 75.895 172 86.422 172 98.523c0 21.647-5.229 35.629-26.856 71.808-14.936 24.986-17.91 34.39-14.523 45.919.919 3.129 2.784 1.811 8.379-5.926 3.025-4.183 11.92-13.689 19.767-21.125 28.218-26.741 35.923-41.605 36.961-71.305.773-22.095-2.352-34.712-12.481-50.394-5.747-8.897-17.767-21.285-26.206-27.009-6.763-4.587-14.045-8.091-14.036-6.754m-25.681 7.013c-2.081 3.163-11.476 13.4-20.879 22.75-24.235 24.097-31.883 35.115-36.116 52.028-2.231 8.914-2.531 38.119-.477 46.472 2.039 8.292 8.259 20.533 15.081 29.682 9.774 13.106 20.163 21.533 34.119 27.675l5.553 2.443-9.667-9.667c-8.396-8.396-10.262-10.913-14.201-19.15-6.601-13.806-8.252-21.591-8.162-38.483.065-12.255.415-15.122 2.806-23 3.481-11.472 10.429-26.012 19.115-40C121.362 64.336 124 58.11 124 45.476c0-7.509-.582-10.476-2.054-10.476-.461 0-2.541 2.587-4.622 5.75m48.176-.545c23.548 17.934 37.461 38.641 42.086 62.633 3.086 16.013.697 34.361-6.464 49.642-7.965 16.998-18.824 29.563-40.622 47.005-14.674 11.742-21.906 18.849-21.201 20.834.659 1.859 6.259.98 18.315-2.874 14.624-4.675 21.562-8.913 34.021-20.782 12.098-11.525 18.377-19.489 22.993-29.163 11.072-23.204 10.79-59.876-.635-82.5-5.999-11.88-19.675-27.8-30.493-35.497-6.569-4.674-23.226-13.278-18-9.298M129 65.373c0 .205.96 2.543 2.133 5.195 1.546 3.494 2.147 6.921 2.182 12.439.061 9.402-1.406 12.759-17.133 39.212-21.544 36.239-24.896 45.627-21.737 60.897 3.345 16.17 13.145 29.722 25.892 35.806 3.547 1.693 6.741 3.078 7.098 3.078.357 0-.598-2.129-2.123-4.73-2.436-4.157-2.775-5.764-2.792-13.25-.011-4.686.537-10.349 1.218-12.584.681-2.235 5.132-10.335 9.892-18 23.288-37.509 24.491-39.903 26.483-52.709 1.377-8.855.615-18.028-2.2-26.489-1.638-4.922-3.516-7.879-8.155-12.837C142.312 73.441 129 63.162 129 65.373" fill="#1976D2" fill-rule="evenodd"/><path fill-opacity=".2" d="M99 34.891c-7.049 2.286-20.936 9.305-28 14.154-10.602 7.276-22.751 21.526-29.072 34.098-5.07 10.083-7.688 19.788-9.021 33.444-2.017 20.653 1.296 39.491 9.784 55.644C50.509 187.109 69.751 205.44 86 213.49c6.222 3.083 5.949 2.682-2.536-3.722C59.912 191.993 45 163.037 45 135.082c0-11.344 1.326-18.215 5.613-29.082 7.01-17.772 22.957-37.299 42.449-51.979 13.068-9.842 18.855-14.96 20.489-18.12l1.5-2.901-5.275.054c-2.902.029-7.751.856-10.776 1.837m50.99 6.859c13.687 14.822 19.994 28.243 22.14 47.114 2.699 23.737-3.278 42.707-24.607 78.097C133.728 189.852 130 198.488 130 207.557c0 5.371 1.013 10.443 2.086 10.443.459 0 3.249-3.263 6.199-7.25 2.95-3.988 10.038-11.75 15.751-17.25 21.806-20.994 27.788-28.147 33.552-40.122 6.181-12.839 7.726-20.705 7.736-39.378.009-15.094-.222-17.267-2.708-25.5-4.791-15.864-14.8-30.615-28.65-42.227C156.865 40.32 146.597 34 144.027 34c-.657 0 2.027 3.487 5.963 7.75m-32.002-1.5c-1.31 2.337-11.208 13.25-21.997 24.25-25.519 26.018-31.437 34.83-35.592 53-2.478 10.838-2.501 35.159-.042 44.5 4.212 16.003 15.518 33.351 29.499 45.264 3.075 2.621 9.653 6.851 14.618 9.401l9.026 4.637-7.582-7.401c-14.929-14.573-21.608-28.693-23.799-50.317-2.347-23.152 4.662-44.703 25.135-77.283C120.426 65.339 124 56.497 124 44.872c0-10.001-2.097-11.613-6.012-4.622m53.512 4.392c18.819 15.737 31.269 34.858 35.872 55.094 2.301 10.117 2.132 26.603-.38 37.082-5.523 23.038-19.137 41.172-48.703 64.871C141.146 215.432 136.533 221 142.293 221c4.193 0 20.097-5.082 28.207-9.014 15.565-7.546 34.958-27.137 43.046-43.486 7.068-14.289 7.955-18.92 7.947-41.5-.009-21.669-1.296-28.657-7.611-41.299-7.304-14.621-23.215-32.038-36.459-39.91-11.15-6.626-12.873-6.961-5.923-1.149M130.513 67.75c4.133 9.945 4.523 19.116 1.162 27.286-1.253 3.044-7.718 14.744-14.368 26C97.867 153.938 94 162.803 94 174.471c0 20.032 13.961 40.904 30.759 45.986l2.26.684-2.51-4.72c-2.096-3.942-2.504-6.052-2.476-12.82.02-5.045.69-9.987 1.775-13.101.959-2.75 6.977-13.325 13.374-23.501 21.264-33.822 23.3-39.005 22.585-57.499-.693-17.902-4.931-25.52-21.078-37.888-7.756-5.941-9.353-6.695-8.176-3.862" fill="#1976D2" fill-rule="evenodd"/></svg>