<svg xmlns="http://www.w3.org/2000/svg" width="256" height="256"><path fill-opacity=".016" d="M0 128.004v128.004l128.25-.254 128.25-.254.254-127.75L257.008 0H0v128.004m.485.496c0 70.4.119 99.053.265 63.672.146-35.38.146-92.98 0-128C.604 29.153.485 58.1.485 128.5" fill="#1976D2" fill-rule="evenodd"/><path fill-opacity=".087" d="M97.5.972c-1.1.46-5.15 1.81-9 3-13.274 4.105-34.58 16.036-44.914 25.151-6.68 5.893-18.259 19.267-23.857 27.555C5.695 77.454 0 98.245 0 128.704c0 24.7 2.79 37.376 12.609 57.296 4.887 9.913 8.501 15.123 17.409 25.101 12.134 13.59 28.933 26.969 42.482 33.834 11.236 5.692 11.076 2.979-.305-5.179-8.976-6.434-22.695-20.362-29.584-30.036-6.364-8.935-14.788-25.641-18.127-35.949-3.007-9.282-6.467-27.899-6.477-34.846-.01-6.519 3.699-26.346 6.253-33.425 7.261-20.134 19.689-38.808 37.501-56.351 7.439-7.328 19.013-16.902 38.709-32.023C107.053 12.072 112 5.732 112 2.35c0-2.223-.337-2.346-6.25-2.282-3.437.037-7.15.444-8.25.904M149 3.288c0 .709 4.313 5.997 9.584 11.75 16.144 17.623 23.614 32.091 27.388 53.047 4.103 22.788 1.737 44.684-7.285 67.405-2.512 6.328-12.875 26.413-18.063 35.01-9.259 15.342-20.908 35.741-23.7 41.5-3.476 7.171-6.938 19.903-6.87 25.261.062 4.803 2.842 12.873 4.64 13.471.657.219 4.318-3.832 8.136-9.002 7.091-9.6 19.012-22.234 34.17-36.212 31.817-29.339 44-55.648 44-95.018 0-28.36-5.559-46.491-20.835-67.962-10.709-15.051-29.619-31.652-43.32-38.03C150.819 1.703 149 1.42 149 3.288m-30.461 2.316c-.883.883-2.454 3.245-3.492 5.25-2.581 4.984-12.151 15.404-34.173 37.206C60.196 68.532 52.197 78.654 44.966 93.5c-8.132 16.697-9.466 23.886-9.466 51 0 18.917.32 24.243 1.805 30 7.722 29.956 32.677 61.232 59.271 74.283 14.594 7.163 18.752 8.038 12.258 2.58-8.481-7.127-19.939-19.52-23.936-25.889-7.562-12.051-9.936-17.701-13.644-32.474-2.327-9.269-2.638-12.493-2.654-27.5-.019-17.738.573-21.299 6.395-38.5 4.928-14.557 15.4-34.765 29.021-56 6.567-10.236 14.151-24.046 16.515-30.071 3.22-8.205 4.833-18.59 4.22-27.164-.632-8.838-2.751-11.622-6.212-8.161m56.477 3.146c.009.412 3.272 3.081 7.25 5.93 9.14 6.546 23.015 20.445 30.767 30.82 3.288 4.4 8.649 13.4 11.914 20 8.01 16.19 10.537 25.413 11.643 42.5 2.258 34.876-10.992 66.525-39.943 95.408-5.031 5.019-16.797 15.237-26.147 22.706-19.622 15.674-26.5 22.545-26.5 26.472v2.672l6.226-.704c6.7-.758 30.33-8.324 37.904-12.136 12.049-6.064 36.442-28.184 47.359-42.946 9.507-12.856 16.413-28.7 19.057-43.723 2-11.369 1.946-43.336-.094-55.249-2.904-16.959-9.301-31.458-20.435-46.32-14.49-19.342-28.573-31.634-46.886-40.921-10.361-5.255-12.145-5.919-12.115-4.509m-44.641 36.715c-.327.853.089 2.594.925 3.87 2.669 4.074 4.701 12.813 4.672 20.097-.045 11.184-1.905 15.509-19.922 46.325-4.098 7.009-8.865 14.993-10.594 17.743-4.744 7.548-12.986 22.967-16.839 31.5-5.43 12.028-7.737 26.139-5.805 35.5 3.723 18.033 8.728 27.973 19.744 39.208 8.151 8.312 16.297 13.316 24.271 14.908l3.327.665-3.206-5.21c-4.311-7.007-5.803-16.998-4.191-28.061 1.395-9.568 3.589-14.363 14.645-32.01 17.994-28.718 27.243-44.474 31.065-52.919 2.356-5.203 5.536-22.478 5.511-29.939-.03-9.261-3.301-23.092-7.185-30.378-3.682-6.908-13.708-17.339-24.293-25.272-9.414-7.055-11.359-8.022-12.125-6.027" fill="#1976D2" fill-rule="evenodd"/><path fill-opacity=".376" d="M101 .897c-.825.459-3.332 1.113-5.572 1.453C87.053 3.619 63.455 14.973 51.5 23.486c-7.144 5.087-21.01 19.318-28.115 28.853C12.952 66.343 5.645 83.695 2.262 102.5c-1.959 10.888-2.165 39.628-.358 50 2.779 15.951 10.211 34.287 18.78 46.329 6.398 8.991 21.02 24.017 30.886 31.739C63.411 239.836 80 249.237 80 246.679c0-.296-4.243-3.728-9.429-7.626-24.825-18.658-42.878-46.559-50.181-77.553-2.828-12.002-2.593-35.002.475-46.5 8.693-32.577 29.481-60.127 66.833-88.574C106.615 12.02 112.881 5.46 111.405 1.613 110.729-.149 103.739-.63 101 .897m48 1.895c0 .51 3.842 5.096 8.537 10.191 15.108 16.393 22.876 29.546 27.471 46.517 3.104 11.463 3.948 39.652 1.544 51.602-3.783 18.806-12.051 37.355-30.05 67.418-19.29 32.22-23.892 42.07-25.083 53.693-.764 7.457 1.022 17.787 3.076 17.787.744 0 2.298-1.238 3.453-2.75 14.125-18.492 18.868-23.629 38.479-41.684 17.036-15.683 29.616-32.738 35.956-48.744 10.825-27.328 10.865-66.285.095-91.875-8.154-19.372-26.275-40.925-45.179-53.736C158.146 5.009 149 .801 149 2.792m-31.797 5.333c-3.891 7.139-10.3 14.407-32.01 36.306-29.471 29.727-37.744 41.009-44.471 60.644-7.325 21.382-7.396 57.585-.153 78.316 6.539 18.717 22.868 40.925 40.318 54.835 6.971 5.556 27.622 16.599 28.814 15.407.302-.303-.969-1.786-2.825-3.295-25.975-21.116-39.09-49.521-39.171-84.838-.053-23.392 6.774-44.994 23.546-74.5 3.282-5.775 6.99-12.075 8.239-14 9.516-14.662 12.446-19.562 16.271-27.207C122.023 37.276 124 29.515 124 17.453 124 7.44 123.266 5 120.253 5c-.74 0-2.113 1.406-3.05 3.125M178 10.318c0 .176 3.633 3.18 8.073 6.678 37.35 29.419 56.803 73.11 50.476 113.363-5.918 37.655-24.37 63.975-69.663 99.372-11.56 9.034-22.886 20.23-22.886 22.623 0 .841.403 1.777.895 2.081 2.501 1.546 29.679-6.311 41.93-12.123 19.498-9.249 47.946-38.441 58.097-59.617 8.019-16.73 10.987-31.323 11.052-54.339.113-40.008-11.279-66.311-41.094-94.887-9.376-8.987-15.874-13.589-27.479-19.462-7.297-3.693-9.401-4.518-9.401-3.689m-47 35.354c0 .369 1.159 3.568 2.575 7.108 2.138 5.343 2.578 8.077 2.592 16.079.017 10.159-1.419 15.491-6.607 24.535-4.795 8.359-19.497 33.402-25.012 42.606-8.884 14.825-17.336 32.74-19.539 41.41-8.075 31.788 11.245 67.332 41.885 77.056 1.885.599 1.722-.057-1.651-6.651-3.593-7.022-3.742-7.715-3.724-17.315.014-7.095.562-11.598 1.888-15.5 2.565-7.549 8.464-18.025 21.33-37.877 11.673-18.012 21.751-36.064 24.073-43.123 7.099-21.576 4.874-46.778-5.454-61.773C156.916 62.876 131 41.606 131 45.672" fill="#1976D2" fill-rule="evenodd"/><path fill-opacity=".161" d="M101.5 2.048c-11.295 1.151-30.605 9.42-47 20.128-8.388 5.478-26.15 23.601-32.677 33.343C9.842 73.398 2 95.716 2 111.93c0 3.274-.45 6.23-1 6.57-1.306.807-1.306 19.193 0 20 .55.34 1.005 3.404 1.012 6.809.026 13.837 8.416 37.597 18.589 52.642 6.594 9.752 26.483 29.298 37.81 37.157C64.534 239.356 79 247.451 79 246.63c0-.303-3.265-2.966-7.255-5.917-22.805-16.865-39.948-40.7-48.701-67.713-4.03-12.439-5.193-20.024-5.211-34-.023-17.659 2.667-29.49 10.46-46C39.237 69.813 57.591 48.977 87.5 25.788c15.831-12.274 21.872-17.919 22.919-21.414.807-2.694-.909-3.142-8.919-2.326M150 3.485c0 .266 3.646 4.429 8.103 9.25 13.591 14.701 20.852 26.235 25.777 40.946 3.025 9.034 4.192 16.676 4.782 31.319.761 18.868-2.046 34.626-9.173 51.5-3.186 7.543-13.17 27.012-17.44 34.005-13.266 21.732-16.83 27.798-20.853 35.495-6.7 12.821-9.196 20.969-9.196 30.026 0 4.222.499 9.107 1.109 10.857 1.4 4.015 1.814 3.694 10.976-8.496 4.186-5.569 14.367-16.374 25.501-27.064 27.999-26.88 36.944-38.998 44.159-59.823 4.915-14.184 5.729-20.013 5.727-41-.001-17.725-.271-21.081-2.379-29.5-1.307-5.225-2.705-9.95-3.105-10.5-.4-.55-1.305-2.79-2.01-4.978-3.149-9.762-17.01-29.557-28.109-40.142-7.725-7.368-19.253-15.802-26.419-19.33-6.184-3.044-7.45-3.48-7.45-2.565m-34.643 8.765c-3.147 4.928-11.933 14.617-27.432 30.25C75.384 55.15 63.865 67.075 62.328 69c-1.538 1.925-3.071 3.725-3.407 4-1.753 1.433-9.365 13.66-12.816 20.586-3.639 7.304-5.82 13.677-8.182 23.914-1.531 6.634-2.237 36.249-1.1 46.137 1.986 17.273 7.323 30.212 19.743 47.863 7.759 11.026 14.604 18.33 24.447 26.082 6.97 5.49 24.51 15.228 25.552 14.187.251-.252-2.607-3.182-6.353-6.51C78.983 226.391 67 197.648 67 165.593c0-14.684 3.813-33.815 8.987-45.093.504-1.1 2.77-6.05 5.034-11 4.385-9.585 13.946-26.437 24.575-43.315C118.418 45.824 122.508 35.588 123.649 21c.594-7.596-.821-16-2.694-16-.533 0-3.051 3.262-5.598 7.25m65.143-.529c.55.488 4.276 3.512 8.28 6.721C206.617 32.736 222.652 54.36 230.721 75c5.539 14.171 6.779 21.485 6.779 40 0 14.886-.333 18.769-2.228 26-6.788 25.897-18.492 44.535-42.287 67.336-5.935 5.688-14.323 12.994-18.638 16.237-23.451 17.62-34.449 29.427-27.41 29.427 4.394 0 20.634-4.657 35.063-10.054 18.416-6.889 49.595-36.738 60.835-58.24 9.392-17.967 12.173-31.258 12.146-58.066-.028-27.903-3.383-42.503-14.057-61.158-7.825-13.677-24.498-32.699-36.185-41.284-7.345-5.395-28.203-16.992-24.239-13.477M133.786 51.75c2.406 5.172 2.677 6.905 2.695 17.25.023 13.68-.233 14.331-16.491 42-5.655 9.625-13.05 22.225-16.432 28-6.714 11.463-13.224 24.395-16.61 33-3.023 7.681-3.835 25.929-1.558 35.026 2.239 8.946 8.774 21.866 14.605 28.872 4.844 5.821 15.744 13.858 21.505 15.857 1.65.572 3.766 1.351 4.702 1.731 1.292.525.932-.713-1.5-5.148-3.146-5.735-3.201-6.067-3.17-18.838.029-11.805.267-13.507 2.591-18.514 2.424-5.224 14.421-25.423 22.859-38.486 4.721-7.309 17.126-28.69 19.425-33.482 5.683-11.842 7.751-36.865 4.092-49.518-3.41-11.794-6.314-16.541-15.78-25.798C145.957 55.132 134.328 46 132.178 46c-.587 0 .136 2.587 1.608 5.75" fill="#1976D2" fill-rule="evenodd"/></svg>