<svg width="32" height="32" viewBox="0 0 104 104" fill="none" xmlns="http://www.w3.org/2000/svg">
<path d="M37.5 0.900078C32.5 2.10008 21.7 7.90008 18 11.3001C5.1 23.3001 0 34.6001 0 51.4001C0 62.2001 1.3 67.8001 6.1 77.0001C9.2 83.0001 19.2 92.9001 26 96.8001C33 100.9 34.6 100.9 28.9 96.9001C16 87.9001 7 70.9001 7 55.9001C7 39.7001 17.2 23.5001 35.8 10.0001C42.2 5.40008 45 2.50008 45 0.600078C45 -0.199922 41.3 7.78573e-05 37.5 0.900078Z" fill="#FF5252"/>
<path d="M64.1 5.70008C72.5 14.5001 76 23.6001 76 36.3001C76 47.5001 72.4 57.1001 61.5 74.5001C53.4 87.5001 51.5 93.6001 53.4 99.8001C54.1 101.9 54.4 101.7 57.7 96.8001C59.7 93.9001 64.9 88.3001 69.3 84.5001C83.3 72.4001 89 60.7001 89 44.5001C89 31.1001 85.4 22.0001 76.3 11.9001C72.2 7.40008 65.6 2.60008 61.4 1.00008C59 0.100084 59.4 0.800084 64.1 5.70008Z" fill="#FF5252"/>
<path d="M46.5 4.3001C45.6 6.3001 40.4 12.0001 34.9 17.1001C18.7 32.1001 14 41.4001 14 58.5001C14 68.4001 15.6 74.7001 19.8 81.5001C26 91.5001 32.8 97.8001 41.5 101.4L45.5 103.1L41.2 99.5001C35 94.1001 30.9 87.6001 28.8 79.7001C24.4 62.7001 27.8 49.5001 42.5 27.0001C48 18.6001 50.1 13.1001 50.1 7.1001C50.2 1.1001 48.6 -0.0998962 46.5 4.3001Z" fill="#FF5252"/>
<path d="M53.4 20.2001C54.4 21.6001 55 24.6001 55 27.8001C55 32.8001 54.4 34.2001 45.2 49.5001C33.7 68.4001 31.9 74.1001 34 83.2001C36.2 92.2001 41.8 99.1001 49.4 102L52.3 103.1L50.5 100.4C48.3 97.1001 48.2 89.8001 50.3 84.8001C51.1 82.8001 54.8 76.7001 58.4 71.2001C62 65.7001 65.9 59.1001 67.1 56.5001C71.1 47.4001 70.6 35.4001 65.8 28.8001C63.6 25.6001 54.4 18.0001 52.9 18.0001C52.3 18.0001 52.6 19.0001 53.4 20.2001Z" fill="#FF5252"/>
<path d="M70.4 3.20008C86.4 13.9001 95.8999 29.9001 95.8999 46.0001C95.8999 63.2001 87.3 77.5001 68.3 91.8001C60.7 97.5001 57.1 101.4 58.3 102.6C59.2 103.5 71.5 99.8001 76.5 97.2001C82.7999 93.8001 93.7999 82.9001 97.1999 76.8001C102 68.1001 103.3 62.3001 103.3 51.0001C103.1 35.3001 99.4999 26.7001 88.0999 14.6001C84.2999 10.7001 80.1999 7.70008 75.5 5.40008C71.7 3.50008 69.3 2.60008 70.4 3.20008Z" fill="#FF5252"/>
</svg>
